<svg id="icon-menu-hits" viewBox="0 0 40 40" fill="none">
        <path d="M21.9412 16.3879L21.9402 16.3859L19.9998 12.7196L18.0595 16.3859L18.0585 16.3879C17.8468 16.7856 17.4587 17.0352 17.0399 17.0915L17.0405 17.0914L21.9412 16.3879ZM21.9412 16.3879C22.1528 16.7856 22.541 17.0353 22.9598 17.0915M21.9412 16.3879L22.9598 17.0915M22.9598 17.0915C22.9603 17.0916 22.9608 17.0917 22.9614 17.0917L27.1508 17.6596L24.168 20.3716L22.9598 17.0915ZM23.7539 21.5907C23.6663 21.1232 23.8406 20.6691 24.1668 20.3727L23.7539 21.5907ZM23.7539 21.5907L24.4737 25.5033L20.6072 23.6076C20.607 23.6075 20.6068 23.6074 20.6066 23.6073C20.2248 23.42 19.7749 23.42 19.3931 23.6073C19.3929 23.6074 19.3926 23.6075 19.3924 23.6076L15.5259 25.5033L16.2461 21.5886L16.2462 21.5882C16.3305 21.1289 16.1643 20.6738 15.8328 20.3727C15.8328 20.3727 15.8328 20.3727 15.8328 20.3727C15.8324 20.3723 15.832 20.372 15.8316 20.3716L12.8488 17.6596L17.0383 17.0917L23.7539 21.5907Z" fill="currentColor" stroke="currentColor" stroke-width="2"></path>
        <path d="M20 7.2V4" stroke="currentColor" stroke-width="2" stroke-miterlimit="10" stroke-linecap="round" stroke-linejoin="round"></path>
        <path d="M28 10.4L29.6 7.2" stroke="currentColor" stroke-width="2" stroke-miterlimit="10" stroke-linecap="round" stroke-linejoin="round"></path>
        <path d="M32 16L35.2 15.2" stroke="currentColor" stroke-width="2" stroke-miterlimit="10" stroke-linecap="round" stroke-linejoin="round"></path>
        <path d="M32 24L35.2 24.8" stroke="currentColor" stroke-width="2" stroke-miterlimit="10" stroke-linecap="round" stroke-linejoin="round"></path>
        <path d="M28 30.4L29.6 32.8" stroke="currentColor" stroke-width="2" stroke-miterlimit="10" stroke-linecap="round" stroke-linejoin="round"></path>
        <path d="M20 32.8V36" stroke="currentColor" stroke-width="2" stroke-miterlimit="10" stroke-linecap="round" stroke-linejoin="round"></path>
        <path d="M12.8002 30.4L11.2002 32.8" stroke="currentColor" stroke-width="2" stroke-miterlimit="10" stroke-linecap="round" stroke-linejoin="round"></path>
        <path d="M7.99981 24L4.7998 24.8" stroke="currentColor" stroke-width="2" stroke-miterlimit="10" stroke-linecap="round" stroke-linejoin="round"></path>
        <path d="M7.9998 16L4.7998 15.2" stroke="currentColor" stroke-width="2" stroke-miterlimit="10" stroke-linecap="round" stroke-linejoin="round"></path>
        <path d="M12.8002 10.4L11.2002 7.2" stroke="currentColor" stroke-width="2" stroke-miterlimit="10" stroke-linecap="round" stroke-linejoin="round"></path>
    </svg>